<?xml version="1.0" encoding="UTF-8" standalone="no" ?>
<!DOCTYPE svg PUBLIC "-//W3C//DTD SVG 1.1//EN" "http://www.w3.org/Graphics/SVG/1.1/DTD/svg11.dtd">
<svg xmlns="http://www.w3.org/2000/svg" xmlns:xlink="http://www.w3.org/1999/xlink" version="1.1" width="1080" height="1080" viewBox="0 0 1080 1080" xml:space="preserve">
<desc>Created with Fabric.js 5.2.4</desc>
<defs>
</defs>
<rect x="0" y="0" width="100%" height="100%" fill="transparent"></rect>
<g transform="matrix(1 0 0 1 540 540)" id="95ddb9d1-b76f-43a7-8a6f-66eae707937e"  >
<rect style="stroke: none; stroke-width: 1; stroke-dasharray: none; stroke-linecap: butt; stroke-dashoffset: 0; stroke-linejoin: miter; stroke-miterlimit: 4; fill: rgb(255,255,255); fill-rule: nonzero; opacity: 1; visibility: hidden;" vector-effect="non-scaling-stroke"  x="-540" y="-540" rx="0" ry="0" width="1080" height="1080" />
</g>
<g transform="matrix(1 0 0 1 540 540)" id="d11447e5-58d0-4208-8afb-836f71d27f8d"  >
</g>
<g transform="matrix(10.42 0 0 10.42 537.86 340.2)"  >
<path style="stroke: none; stroke-width: 1; stroke-dasharray: none; stroke-linecap: butt; stroke-dashoffset: 0; stroke-linejoin: miter; stroke-miterlimit: 4; fill: rgb(0,0,0); fill-rule: nonzero; opacity: 1;" vector-effect="non-scaling-stroke"  transform=" translate(-50, -50.3)" d="M 48.208 76.496 L 29.407999999999998 76.044 L 29.407999999999998 73.663 L 47.92699999999999 69.457 C 47.92699999999999 69.457 47.309999999999995 58.55799999999999 47.309999999999995 57.17999999999999 C 47.309999999999995 57.06799999999999 46.714 59.64999999999999 46.714 59.64999999999999 L 0 55.946 L 0 51.806 L 47.237 48.684 C 47.237 34.125 45.422000000000004 32.808 45.422000000000004 27.275999999999996 C 45.422000000000004 24.440999999999995 48.109 19.430999999999997 50.00000000000001 19.430999999999997 C 51.89200000000001 19.430999999999997 54.57800000000001 24.440999999999995 54.57800000000001 27.275999999999996 C 54.57800000000001 32.80799999999999 52.76300000000001 34.126 52.76300000000001 48.684 L 100 51.807 L 100 55.947 L 53.286 59.650000000000006 C 53.286 59.650000000000006 52.690000000000005 57.068000000000005 52.690000000000005 57.18000000000001 C 52.690000000000005 58.55800000000001 52.07300000000001 69.45700000000001 52.07300000000001 69.45700000000001 L 70.593 73.66300000000001 L 70.593 76.04400000000001 L 51.793000000000006 76.49600000000001 L 51.47500000000001 74.47500000000001 C 51.47500000000001 74.47500000000001 51.31800000000001 77.06800000000001 50.92100000000001 78.947 C 52.28600000000001 78.86 53.989000000000004 78.753 54.17100000000001 78.74000000000001 C 54.62100000000001 78.70800000000001 55.02100000000001 78.95 55.06400000000001 79.281 C 55.108000000000004 79.611 54.75900000000001 80.025 53.95700000000001 79.891 C 52.162000000000006 79.589 50.83100000000001 79.37 49.86500000000001 79.226 C 49.20200000000001 79.126 48.99400000000001 78.516 48.96600000000001 78.355 C 48.653000000000006 76.568 48.52600000000001 74.47500000000001 48.52600000000001 74.47500000000001 L 48.208 76.496 z M 49.848 79.894 C 48.874 79.78 47.588 79.57300000000001 45.89 79.24300000000001 C 45.091 79.08900000000001 44.739 79.52300000000001 44.782000000000004 79.85300000000001 C 44.825 80.18400000000001 45.225 80.426 45.675000000000004 80.394 C 45.87500000000001 80.38000000000001 47.903000000000006 80.251 49.309000000000005 80.16300000000001 C 49.499 80.766 49.727000000000004 81.168 50.00000000000001 81.168 C 50.20700000000001 81.168 50.388000000000005 80.938 50.54600000000001 80.56500000000001 C 50.581 80.454 50.805 80.005 49.848 79.894 z" stroke-linecap="round" />
</g>
</svg>