<svg id="SvgjsSvg1001" width="288" height="288" xmlns="http://www.w3.org/2000/svg" version="1.1" xmlns:xlink="http://www.w3.org/1999/xlink" xmlns:svgjs="http://svgjs.com/svgjs"><defs id="SvgjsDefs1002"></defs><g id="SvgjsG1008"><svg xmlns="http://www.w3.org/2000/svg" viewBox="0 0 37.667 37.667" width="288" height="288"><path d="M1.5 13.5C2.328 13.5 3 12.829 3 12V3h9c.828 0 1.5-.671 1.5-1.5S12.828 0 12 0H1.5C.672 0 0 .671 0 1.5V12C0 12.828.672 13.5 1.5 13.5zM25.667 3h9v8.999c0 .829.672 1.5 1.5 1.5s1.5-.671 1.5-1.5V1.5c0-.829-.672-1.5-1.5-1.5h-10.5c-.828 0-1.5.671-1.5 1.5S24.839 3 25.667 3zM25.667 37.667h10.5c.828 0 1.5-.671 1.5-1.5v-10.5c0-.829-.672-1.5-1.5-1.5s-1.5.671-1.5 1.5v9h-9c-.828 0-1.5.671-1.5 1.5S24.839 37.667 25.667 37.667zM1.5 37.667H12c.828 0 1.5-.671 1.5-1.5s-.672-1.5-1.5-1.5H3v-9c0-.829-.672-1.5-1.5-1.5S0 24.838 0 25.667v10.5C0 36.995.672 37.667 1.5 37.667z" fill="#00ff00" class="color000 svgShape"></path></svg></g></svg>