<?xml version="1.0" encoding="utf-8"?>
<svg viewBox="0 0 512.001 512.001" fill="#000000" xmlns="http://www.w3.org/2000/svg">
  <g transform="matrix(0.9999999999999999, 0, 0, 0.9999999999999999, 0, 0)">
    <g>
      <path d="M511.783,170.941c-0.675-3.061-2.853-5.572-5.787-6.674l-90.121-33.855c-3.427-1.286-7.289-0.435-9.857,2.174&#10;&#9;&#9;&#9;L349.3,190.227c-1.98-2.766-4.104-5.457-6.351-8.081l79.549-79.549c3.616-3.616,3.616-9.478,0-13.094&#10;&#9;&#9;&#9;c-3.615-3.616-9.478-3.616-13.094,0l-79.549,79.549c-2.624-2.247-5.316-4.369-8.082-6.351l57.641-56.716&#10;&#9;&#9;&#9;c2.609-2.567,3.461-6.43,2.174-9.856L347.735,6.005c-1.103-2.933-3.614-5.111-6.674-5.787c-3.059-0.677-6.255,0.244-8.488,2.442&#10;&#9;&#9;&#9;l-74.785,73.596c-2.609,2.568-3.461,6.43-2.173,9.856l21.403,56.968c-37.991-7.92-79.127,2.806-108.557,32.236L34.785,308.993&#10;&#9;&#9;&#9;c-46.379,46.379-46.379,121.844,0,168.224c23.19,23.19,53.651,34.784,84.111,34.784s60.921-11.594,84.111-34.784l133.675-133.674&#10;&#9;&#9;&#9;c29.431-29.431,40.156-70.567,32.236-108.558l56.969,21.403c1.061,0.399,2.162,0.591,3.254,0.591c2.438,0,4.829-0.964,6.602-2.766&#10;&#9;&#9;&#9;l73.596-74.785C511.539,177.197,512.457,174.001,511.783,170.941z M275.067,85.236l60.341-59.382l26.728,71.151l-56.772,55.861&#10;&#9;&#9;&#9;c-1.951-0.964-3.922-1.874-5.913-2.725L275.067,85.236z M47.88,464.121c-31.447-31.447-37.615-78.725-18.554-116.409&#10;&#9;&#9;&#9;l134.963,134.963C126.605,501.737,79.327,495.569,47.88,464.121z M323.588,330.448L189.913,464.122&#10;&#9;&#9;&#9;c-3.048,3.048-6.261,5.83-9.583,8.404L39.476,331.672c2.574-3.322,5.356-6.535,8.404-9.583l133.674-133.674&#10;&#9;&#9;&#9;c2.22-2.22,4.529-4.297,6.898-6.264l141.402,141.4C327.886,325.919,325.808,328.228,323.588,330.448z M340.47,307.975&#10;&#9;&#9;&#9;L204.026,171.532c38.168-21.058,87.231-15.449,119.562,16.882C355.919,220.745,361.528,269.807,340.47,307.975z M426.767,236.935&#10;&#9;&#9;&#9;l-64.905-24.385c-0.851-1.991-1.761-3.962-2.725-5.913l55.862-56.772l71.15,26.728L426.767,236.935z"/>
    </g>
  </g>
  <g style="" transform="matrix(0.4790670275688171, 0, 0, 0.4790670275688171, 61.718110050530875, 203.61596983098931)">
    <g>
      <path d="M235.868,204.998l-61.606-104.342c-1.256-2.128-3.307-3.669-5.699-4.284c-2.392-0.616-4.932-0.255-7.058,1.004&#10;&#9;&#9;&#9;c-27.303,16.153-50.179,39.177-66.153,66.583c-16.467,28.253-25.172,60.566-25.172,93.446c0,5.142,4.168,9.31,9.31,9.31h121.141&#10;&#9;&#9;&#9;c5.139,0.001,9.307-4.167,9.307-9.309c0-16.207,8.678-31.403,22.648-39.66C237.013,215.131,238.481,209.424,235.868,204.998z&#10;&#9;&#9;&#9; M192,248.096H89.055c1.465-26.351,9.127-52.02,22.38-74.759c12.813-21.981,30.559-40.833,51.66-54.966l52.35,88.665&#10;&#9;&#9;&#9;C202.787,217.264,194.368,232.006,192,248.096z" style="stroke-miterlimit: 4.86; stroke-linejoin: round; vector-effect: non-scaling-stroke; stroke-width: 50px;"/>
    </g>
  </g>
  <g style="" transform="matrix(0.4790670275688171, 0, 0, 0.4790670275688171, 61.718110050530875, 203.61596983098931)">
    <g>
      <path d="M416.651,163.961c-15.975-27.407-38.851-50.43-66.155-66.584c-2.126-1.259-4.667-1.619-7.058-1.004&#10;&#9;&#9;&#9;c-2.393,0.614-4.443,2.156-5.699,4.284l-61.606,104.342c-2.613,4.425-1.146,10.133,3.28,12.748&#10;&#9;&#9;&#9;c13.97,8.257,22.648,23.454,22.648,39.66c0,5.142,4.167,9.31,9.31,9.31h121.141c5.143,0,9.31-4.168,9.31-9.31&#10;&#9;&#9;&#9;C441.823,224.525,433.119,192.213,416.651,163.961z M319.999,248.096c-2.367-16.089-10.786-30.832-23.446-41.059l52.35-88.665&#10;&#9;&#9;&#9;c21.103,14.133,38.849,32.983,51.66,54.966c13.254,22.739,20.916,48.408,22.38,74.759H319.999z" style="stroke-miterlimit: 4.86; stroke-linejoin: round; vector-effect: non-scaling-stroke; stroke-width: 50px;"/>
    </g>
  </g>
  <g style="" transform="matrix(0.4790670275688171, 0, 0, 0.4790670275688171, 61.718110050530875, 203.61596983098931)">
    <g>
      <path d="M350.876,406.578l-59.558-105.53c-1.215-2.152-3.236-3.735-5.62-4.396c-2.381-0.66-4.931-0.346-7.082,0.875&#10;&#9;&#9;&#9;c-6.851,3.887-14.67,5.941-22.616,5.941c-8.1,0-16.059-2.131-23.017-6.164c-2.139-1.24-4.684-1.579-7.071-0.94&#10;&#9;&#9;&#9;c-2.388,0.638-4.424,2.198-5.66,4.34l-60.588,104.94c-2.57,4.449-1.048,10.139,3.4,12.714&#10;&#9;&#9;&#9;c28.121,16.273,60.258,24.874,92.936,24.874c32.047,0,63.637-8.291,91.353-23.976&#10;&#9;&#9;&#9;C351.825,416.724,353.401,411.052,350.876,406.578z M256,424.609c-26.283,0-52.169-6.179-75.429-17.94l51.485-89.173&#10;&#9;&#9;&#9;c7.577,3.02,15.711,4.59,23.944,4.59c8.014,0,15.945-1.492,23.352-4.36l50.609,89.671&#10;&#9;&#9;&#9;C307.094,418.682,281.713,424.609,256,424.609z" style="stroke-miterlimit: 4.86; stroke-linejoin: round; vector-effect: non-scaling-stroke; stroke-width: 50px;"/>
    </g>
  </g>
  <g style="" transform="matrix(0.4790670275688171, 0, 0, 0.4790670275688171, 61.718110050530875, 203.61596983098931)">
    <g>
      <path d="M256,232.252c-13.094,0-23.747,10.653-23.747,23.748s10.653,23.748,23.747,23.748c13.095,0,23.748-10.653,23.748-23.748&#10;&#9;&#9;&#9;S269.095,232.252,256,232.252z M256,261.128c-2.826,0-5.127-2.3-5.127-5.128s2.3-5.128,5.127-5.128c2.828,0,5.128,2.3,5.128,5.128&#10;&#9;&#9;&#9;S258.826,261.128,256,261.128z" style="stroke-miterlimit: 4.86; stroke-linejoin: round; vector-effect: non-scaling-stroke; stroke-width: 50px;"/>
    </g>
  </g>
</svg>