<?xml version="1.0" encoding="utf-8"?>
<svg viewBox="25.443 35.229 453.284 462.875" xmlns="http://www.w3.org/2000/svg">
  <path d="M460.583,381.576,348.2,218.059,366.608,201.7a62.173,62.173,0,0,0,41.156-18.266l11.817-11.817A65.24,65.24,0,0,0,426.559,87.3a8.029,8.029,0,0,0-1.86-1.86,65.24,65.24,0,0,0-84.315,6.979l-11.815,11.815A62.175,62.175,0,0,0,310.3,145.393L293.941,163.8,130.424,51.417a8,8,0,0,0-10.188.936L86.294,86.294A8,8,0,0,0,86.93,98.18L241.5,222.792l-19.61,22.061-46.05,46.05-102-69.79a8,8,0,0,0-10.174.946L35.383,250.343a8,8,0,0,0,0,11.314L121.1,347.375,96.755,381.457a8,8,0,0,0,.853,10.308l5.657,5.656L91.951,408.735,63.667,380.45,52.354,391.765l67.882,67.882,11.313-11.314-28.284-28.284,11.313-11.314,5.658,5.658a8,8,0,0,0,10.306.852L164.625,390.9l85.718,85.718a8,8,0,0,0,11.314,0l28.284-28.285a8,8,0,0,0,.946-10.175l-69.79-102,46.046-46.047L289.208,270.5,413.821,425.07a8,8,0,0,0,5.8,2.967c.143.008.285.012.427.012a8,8,0,0,0,5.657-2.343l33.94-33.941A8,8,0,0,0,460.583,381.576ZM126.845,68.371l13.41,9.217-23.823,23.823L103.9,91.312Zm2.115,43.14,24.706-24.706L283.229,175.85l-31.085,34.97Zm195.245,42.323a8,8,0,0,0,2.021-5.314,46.322,46.322,0,0,1,13.656-32.971L351.7,103.733A49.287,49.287,0,0,1,414.3,97.7a49.283,49.283,0,0,1-6.034,62.6L396.45,172.118a46.317,46.317,0,0,1-32.97,13.656,8,8,0,0,0-5.314,2.021l-96.186,85.5-5.98-5.98,67.882-67.881-11.313-11.315L244.687,256l-5.98-5.98ZM165.49,369.137,142.863,346.51l65.27-65.27A31.79,31.79,0,0,0,216.4,295.6h0a31.8,31.8,0,0,0,14.358,8.268Zm73.54-96.166,11.313,11.313a16.018,16.018,0,0,1-22.627,0h0a16.02,16.02,0,0,1,0-22.628ZM131.549,335.2,74.98,278.628l22.176-22.176,67.175,45.962ZM70.286,238.067l13.435,9.193L63.667,267.314,52.353,256Zm56.471,160.219-13.043-13.043,18.856-26.4,20.586,20.586Zm82.829-50.617,45.962,67.175-22.176,22.175L176.8,380.451ZM256,459.647l-11.314-11.314,20.054-20.054,9.193,13.435Zm80.15-230.875L425.2,358.334,400.489,383.04,301.18,259.856ZM420.688,408.1l-10.1-12.528,23.823-23.823,9.216,13.41Z"/>
  <rect x="327.196" y="168.804" width="16" height="16" transform="matrix(0.7071314498806087, -0.7070821116318444, 0.7070821116318444, 0.7071314498806087, -26.84799844694134, 288.78901797516664)"/>
</svg>