<?xml version="1.0" encoding="iso-8859-1"?>
<!-- Uploaded to: SVG Repo, www.svgrepo.com, Generator: SVG Repo Mixer Tools -->
<!DOCTYPE svg PUBLIC "-//W3C//DTD SVG 1.1//EN" "http://www.w3.org/Graphics/SVG/1.1/DTD/svg11.dtd">
<svg fill="#000000" version="1.1" id="Capa_1" xmlns="http://www.w3.org/2000/svg" xmlns:xlink="http://www.w3.org/1999/xlink" 
	 width="800px" height="800px" viewBox="0 0 37.667 37.667"
	 xml:space="preserve">
<g>
	<g>
		<path d="M1.5,13.5C2.328,13.5,3,12.829,3,12V3h9c0.828,0,1.5-0.671,1.5-1.5S12.828,0,12,0H1.5C0.672,0,0,0.671,0,1.5V12
			C0,12.828,0.672,13.5,1.5,13.5z"/>
		<path d="M25.667,3h9v8.999c0,0.829,0.672,1.5,1.5,1.5s1.5-0.671,1.5-1.5V1.5c0-0.829-0.672-1.5-1.5-1.5h-10.5
			c-0.828,0-1.5,0.671-1.5,1.5S24.839,3,25.667,3z"/>
		<path d="M25.667,37.667h10.5c0.828,0,1.5-0.671,1.5-1.5v-10.5c0-0.829-0.672-1.5-1.5-1.5s-1.5,0.671-1.5,1.5v9h-9
			c-0.828,0-1.5,0.671-1.5,1.5S24.839,37.667,25.667,37.667z"/>
		<path d="M1.5,37.667H12c0.828,0,1.5-0.671,1.5-1.5s-0.672-1.5-1.5-1.5H3v-9c0-0.829-0.672-1.5-1.5-1.5S0,24.838,0,25.667v10.5
			C0,36.995,0.672,37.667,1.5,37.667z"/>
	</g>
</g>
</svg>